<svg xmlns="http://www.w3.org/2000/svg" width="1304" height="1122" viewBox="0 0 1304 1122">
<defs>
<style>.a{fill:#6527e3;}.a,.b,.c,.d,.e,.f,.g{stroke:#707070;}.b{fill:rgba(245,245,245,0.15);}.c{fill:#ad98d7;}.d{fill:#fff;}.e{fill:#f471f0;}.f{fill:rgba(108,220,241,0.96);}.g{fill:rgba(246,243,252,0.17);}.h{stroke:none;}.i{fill:none;}
</style>
</defs>
<g transform="translate(-333 -349)">
<g class="a" transform="translate(985 349)">
<rect class="h" width="326" height="286" rx="73"/>
<rect class="i" x="0.5" y="0.5" width="325" height="285" rx="72.5"/>
</g>
<g class="b" transform="translate(659 613)">
<rect class="h" width="326" height="286" rx="73"/>
<rect class="i" x="0.5" y="0.5" width="325" height="285" rx="72.5"/>
</g>
<g class="a" transform="translate(985 899)">
<rect class="h" width="326" height="286" rx="73"/>
<rect class="i" x="0.5" y="0.5" width="325" height="285" rx="72.5"/>
</g>
<g class="c" transform="translate(333 899)">
<rect class="h" width="326" height="286" rx="73"/>
<rect class="i" x="0.5" y="0.5" width="325" height="285" rx="72.5"/>
</g>
<g class="a" transform="translate(1311 613)">
<rect class="h" width="326" height="286" rx="73"/>
<rect class="i" x="0.5" y="0.5" width="325" height="285" rx="72.5"/>
</g>
<g class="d" transform="translate(985 635)">
<ellipse class="h" cx="163" cy="132" rx="163" ry="132"/>
<ellipse class="i" cx="163" cy="132" rx="162.5" ry="131.5"/>
</g>
<g class="e" transform="translate(985 635)">
<ellipse class="h" cx="163" cy="132" rx="163" ry="132"/>
<ellipse class="i" cx="163" cy="132" rx="162.5" ry="131.5"/>
</g>
<g class="f" transform="translate(659 899)">
<ellipse class="h" cx="163" cy="137.5" rx="163" ry="137.5"/>
<ellipse class="i" cx="163" cy="137.5" rx="162.5" ry="137"/>
</g>
<g class="g" transform="translate(659 1174)">
<rect class="h" width="326" height="297" rx="73"/>
<rect class="i" x="0.5" y="0.5" width="325" height="296" rx="72.5"/>
</g>
</g>
</svg>
